<mxfile host="app.diagrams.net" agent="Mozilla/5.0 (Windows NT 10.0; Win64; x64) AppleWebKit/537.36 (KHTML, like Gecko) Chrome/135.0.0.0 Safari/537.36" version="26.1.0">
  <diagram name="Page-1" id="H1IXSLMZ-ifQiYaxo1dl">
    <mxGraphModel dx="2400" dy="1438" grid="0" gridSize="10" guides="1" tooltips="1" connect="1" arrows="1" fold="1" page="0" pageScale="1" pageWidth="850" pageHeight="1100" math="0" shadow="0">
      <root>
        <mxCell id="0" />
        <mxCell id="1" parent="0" />
        <mxCell id="LOCd6UUGv3mW9nOgF0pl-1" value="Airport" style="rounded=0;whiteSpace=wrap;html=1;" vertex="1" parent="1">
          <mxGeometry x="-33" y="80" width="120" height="60" as="geometry" />
        </mxCell>
        <mxCell id="LOCd6UUGv3mW9nOgF0pl-2" value="" style="endArrow=none;html=1;rounded=0;fontSize=12;startSize=8;endSize=8;curved=1;entryX=0;entryY=1;entryDx=0;entryDy=0;exitX=0.655;exitY=0.037;exitDx=0;exitDy=0;exitPerimeter=0;" edge="1" parent="1" source="LOCd6UUGv3mW9nOgF0pl-9" target="LOCd6UUGv3mW9nOgF0pl-1">
          <mxGeometry width="50" height="50" relative="1" as="geometry">
            <mxPoint x="-81" y="205" as="sourcePoint" />
            <mxPoint x="-31" y="155" as="targetPoint" />
          </mxGeometry>
        </mxCell>
        <mxCell id="LOCd6UUGv3mW9nOgF0pl-3" value="" style="endArrow=none;html=1;rounded=0;fontSize=12;startSize=8;endSize=8;curved=1;exitX=1;exitY=0.5;exitDx=0;exitDy=0;entryX=0;entryY=0.75;entryDx=0;entryDy=0;" edge="1" parent="1" source="LOCd6UUGv3mW9nOgF0pl-8" target="LOCd6UUGv3mW9nOgF0pl-1">
          <mxGeometry width="50" height="50" relative="1" as="geometry">
            <mxPoint x="-108" y="171" as="sourcePoint" />
            <mxPoint x="-37" y="133" as="targetPoint" />
          </mxGeometry>
        </mxCell>
        <mxCell id="LOCd6UUGv3mW9nOgF0pl-4" value="" style="endArrow=none;html=1;rounded=0;fontSize=12;startSize=8;endSize=8;curved=1;entryX=0;entryY=0.5;entryDx=0;entryDy=0;exitX=1;exitY=1;exitDx=0;exitDy=0;" edge="1" parent="1" source="LOCd6UUGv3mW9nOgF0pl-7" target="LOCd6UUGv3mW9nOgF0pl-1">
          <mxGeometry width="50" height="50" relative="1" as="geometry">
            <mxPoint x="-111" y="90" as="sourcePoint" />
            <mxPoint x="-49" y="116" as="targetPoint" />
          </mxGeometry>
        </mxCell>
        <mxCell id="LOCd6UUGv3mW9nOgF0pl-5" value="" style="endArrow=none;html=1;rounded=0;fontSize=12;startSize=8;endSize=8;curved=1;entryX=0;entryY=0;entryDx=0;entryDy=0;exitX=0.5;exitY=1;exitDx=0;exitDy=0;" edge="1" parent="1" source="LOCd6UUGv3mW9nOgF0pl-6" target="LOCd6UUGv3mW9nOgF0pl-1">
          <mxGeometry width="50" height="50" relative="1" as="geometry">
            <mxPoint x="-87" y="50" as="sourcePoint" />
            <mxPoint x="-53" y="-17" as="targetPoint" />
          </mxGeometry>
        </mxCell>
        <mxCell id="LOCd6UUGv3mW9nOgF0pl-6" value="&lt;u&gt;Airport_code&lt;/u&gt;" style="ellipse;whiteSpace=wrap;html=1;" vertex="1" parent="1">
          <mxGeometry x="-112" y="-5" width="82" height="40" as="geometry" />
        </mxCell>
        <mxCell id="LOCd6UUGv3mW9nOgF0pl-7" value="name" style="ellipse;whiteSpace=wrap;html=1;" vertex="1" parent="1">
          <mxGeometry x="-194" y="38" width="82" height="40" as="geometry" />
        </mxCell>
        <mxCell id="LOCd6UUGv3mW9nOgF0pl-8" value="state" style="ellipse;whiteSpace=wrap;html=1;" vertex="1" parent="1">
          <mxGeometry x="-202.5" y="95" width="82" height="40" as="geometry" />
        </mxCell>
        <mxCell id="LOCd6UUGv3mW9nOgF0pl-9" value="city" style="ellipse;whiteSpace=wrap;html=1;" vertex="1" parent="1">
          <mxGeometry x="-173" y="154" width="82" height="40" as="geometry" />
        </mxCell>
        <mxCell id="LOCd6UUGv3mW9nOgF0pl-10" value="AIRPLANE" style="rounded=0;whiteSpace=wrap;html=1;" vertex="1" parent="1">
          <mxGeometry x="61" y="502" width="120" height="60" as="geometry" />
        </mxCell>
        <mxCell id="LOCd6UUGv3mW9nOgF0pl-11" value="LEG INSTANCE" style="rounded=0;whiteSpace=wrap;html=1;" vertex="1" parent="1">
          <mxGeometry x="194.5" y="296" width="120" height="55" as="geometry" />
        </mxCell>
        <mxCell id="LOCd6UUGv3mW9nOgF0pl-14" value="&lt;span style=&quot;color: rgb(0, 0, 0); font-family: Helvetica; font-size: 12px; font-style: normal; font-variant-ligatures: normal; font-variant-caps: normal; font-weight: 400; letter-spacing: normal; orphans: 2; text-align: center; text-indent: 0px; text-transform: none; widows: 2; word-spacing: 0px; -webkit-text-stroke-width: 0px; white-space: normal; background-color: rgb(255, 255, 255); text-decoration-thickness: initial; text-decoration-style: initial; text-decoration-color: initial; float: none; display: inline !important;&quot;&gt;SEAT / RESERVATION&lt;/span&gt;" style="rounded=0;whiteSpace=wrap;html=1;" vertex="1" parent="1">
          <mxGeometry x="436" y="477.5" width="120" height="60" as="geometry" />
        </mxCell>
        <mxCell id="LOCd6UUGv3mW9nOgF0pl-15" value="FLIGHT" style="rounded=0;whiteSpace=wrap;html=1;" vertex="1" parent="1">
          <mxGeometry x="225.5" y="500" width="120" height="60" as="geometry" />
        </mxCell>
        <mxCell id="LOCd6UUGv3mW9nOgF0pl-42" value="       FLIGHT LEG" style="rounded=0;whiteSpace=wrap;html=1;" vertex="1" parent="1">
          <mxGeometry x="457" y="85" width="120" height="60" as="geometry" />
        </mxCell>
        <mxCell id="LOCd6UUGv3mW9nOgF0pl-59" value="" style="endArrow=none;html=1;rounded=0;fontSize=12;startSize=8;endSize=8;curved=1;entryX=0.992;entryY=0.65;entryDx=0;entryDy=0;entryPerimeter=0;exitX=0;exitY=0.5;exitDx=0;exitDy=0;" edge="1" parent="1" source="LOCd6UUGv3mW9nOgF0pl-60" target="LOCd6UUGv3mW9nOgF0pl-42">
          <mxGeometry width="50" height="50" relative="1" as="geometry">
            <mxPoint x="680" y="193" as="sourcePoint" />
            <mxPoint x="834" y="219.5" as="targetPoint" />
          </mxGeometry>
        </mxCell>
        <mxCell id="LOCd6UUGv3mW9nOgF0pl-60" value="leg_no" style="ellipse;whiteSpace=wrap;html=1;fontStyle=4;verticalAlign=middle;labelBackgroundColor=none;labelBorderColor=none;textShadow=0;fontColor=default;" vertex="1" parent="1">
          <mxGeometry x="636" y="98" width="82" height="40" as="geometry" />
        </mxCell>
        <mxCell id="LOCd6UUGv3mW9nOgF0pl-63" value="Departure time" style="ellipse;whiteSpace=wrap;html=1;" vertex="1" parent="1">
          <mxGeometry x="56" y="341" width="83" height="45" as="geometry" />
        </mxCell>
        <mxCell id="LOCd6UUGv3mW9nOgF0pl-64" value="" style="endArrow=none;html=1;rounded=0;fontSize=12;startSize=8;endSize=8;curved=1;exitX=1;exitY=0;exitDx=0;exitDy=0;entryX=0;entryY=0.5;entryDx=0;entryDy=0;" edge="1" parent="1" source="LOCd6UUGv3mW9nOgF0pl-63" target="LOCd6UUGv3mW9nOgF0pl-11">
          <mxGeometry width="50" height="50" relative="1" as="geometry">
            <mxPoint x="53" y="324" as="sourcePoint" />
            <mxPoint x="110.03999999999996" y="289" as="targetPoint" />
          </mxGeometry>
        </mxCell>
        <mxCell id="LOCd6UUGv3mW9nOgF0pl-65" value="Arrival time" style="ellipse;whiteSpace=wrap;html=1;" vertex="1" parent="1">
          <mxGeometry x="76" y="243" width="83" height="45" as="geometry" />
        </mxCell>
        <mxCell id="LOCd6UUGv3mW9nOgF0pl-66" value="" style="endArrow=none;html=1;rounded=0;fontSize=12;startSize=8;endSize=8;curved=1;entryX=1;entryY=0.5;entryDx=0;entryDy=0;exitX=0;exitY=0;exitDx=0;exitDy=0;" edge="1" parent="1" source="LOCd6UUGv3mW9nOgF0pl-11" target="LOCd6UUGv3mW9nOgF0pl-65">
          <mxGeometry width="50" height="50" relative="1" as="geometry">
            <mxPoint x="87" y="269" as="sourcePoint" />
            <mxPoint x="47" y="276" as="targetPoint" />
          </mxGeometry>
        </mxCell>
        <mxCell id="LOCd6UUGv3mW9nOgF0pl-67" value="Number of avaliable seats" style="ellipse;whiteSpace=wrap;html=1;" vertex="1" parent="1">
          <mxGeometry x="11" y="288" width="104" height="53" as="geometry" />
        </mxCell>
        <mxCell id="LOCd6UUGv3mW9nOgF0pl-68" value="" style="endArrow=none;html=1;rounded=0;fontSize=12;startSize=8;endSize=8;curved=1;entryX=0;entryY=0.25;entryDx=0;entryDy=0;exitX=0.972;exitY=0.314;exitDx=0;exitDy=0;exitPerimeter=0;" edge="1" parent="1" source="LOCd6UUGv3mW9nOgF0pl-67" target="LOCd6UUGv3mW9nOgF0pl-11">
          <mxGeometry width="50" height="50" relative="1" as="geometry">
            <mxPoint x="251" y="352" as="sourcePoint" />
            <mxPoint x="251" y="327" as="targetPoint" />
          </mxGeometry>
        </mxCell>
        <mxCell id="LOCd6UUGv3mW9nOgF0pl-77" value="Given date" style="ellipse;whiteSpace=wrap;html=1;" vertex="1" parent="1">
          <mxGeometry x="431" y="296" width="83" height="45" as="geometry" />
        </mxCell>
        <mxCell id="LOCd6UUGv3mW9nOgF0pl-79" value="" style="rhombus;whiteSpace=wrap;html=1;" vertex="1" parent="1">
          <mxGeometry x="367" y="221" width="80" height="80" as="geometry" />
        </mxCell>
        <mxCell id="LOCd6UUGv3mW9nOgF0pl-80" value="" style="endArrow=none;html=1;rounded=0;fontSize=12;startSize=8;endSize=8;curved=1;exitX=0.992;exitY=0.382;exitDx=0;exitDy=0;exitPerimeter=0;entryX=0.05;entryY=0.6;entryDx=0;entryDy=0;entryPerimeter=0;" edge="1" parent="1" source="LOCd6UUGv3mW9nOgF0pl-11" target="LOCd6UUGv3mW9nOgF0pl-79">
          <mxGeometry width="50" height="50" relative="1" as="geometry">
            <mxPoint x="334" y="322" as="sourcePoint" />
            <mxPoint x="384" y="272" as="targetPoint" />
          </mxGeometry>
        </mxCell>
        <mxCell id="LOCd6UUGv3mW9nOgF0pl-81" value="" style="endArrow=none;html=1;rounded=0;fontSize=12;startSize=8;endSize=8;curved=1;exitX=0.607;exitY=0.139;exitDx=0;exitDy=0;exitPerimeter=0;entryX=0;entryY=1;entryDx=0;entryDy=0;" edge="1" parent="1" source="LOCd6UUGv3mW9nOgF0pl-222" target="LOCd6UUGv3mW9nOgF0pl-42">
          <mxGeometry width="50" height="50" relative="1" as="geometry">
            <mxPoint x="426" y="241" as="sourcePoint" />
            <mxPoint x="495" y="227" as="targetPoint" />
          </mxGeometry>
        </mxCell>
        <mxCell id="LOCd6UUGv3mW9nOgF0pl-82" value="" style="endArrow=none;html=1;rounded=0;fontSize=12;startSize=8;endSize=8;curved=1;exitX=0.349;exitY=0.022;exitDx=0;exitDy=0;exitPerimeter=0;entryX=1;entryY=1;entryDx=0;entryDy=0;" edge="1" parent="1" source="LOCd6UUGv3mW9nOgF0pl-77" target="LOCd6UUGv3mW9nOgF0pl-79">
          <mxGeometry width="50" height="50" relative="1" as="geometry">
            <mxPoint x="367" y="319" as="sourcePoint" />
            <mxPoint x="420" y="293" as="targetPoint" />
          </mxGeometry>
        </mxCell>
        <mxCell id="LOCd6UUGv3mW9nOgF0pl-83" value="   linked " style="rhombus;whiteSpace=wrap;html=1;" vertex="1" parent="1">
          <mxGeometry x="356" y="362" width="80" height="80" as="geometry" />
        </mxCell>
        <mxCell id="LOCd6UUGv3mW9nOgF0pl-84" value="  assigned " style="rhombus;whiteSpace=wrap;html=1;" vertex="1" parent="1">
          <mxGeometry x="115" y="386" width="80" height="80" as="geometry" />
        </mxCell>
        <mxCell id="LOCd6UUGv3mW9nOgF0pl-85" value="" style="endArrow=none;html=1;rounded=0;fontSize=12;startSize=8;endSize=8;curved=1;entryX=1;entryY=1;entryDx=0;entryDy=0;exitX=0.425;exitY=0.088;exitDx=0;exitDy=0;exitPerimeter=0;" edge="1" parent="1" source="LOCd6UUGv3mW9nOgF0pl-83" target="LOCd6UUGv3mW9nOgF0pl-11">
          <mxGeometry width="50" height="50" relative="1" as="geometry">
            <mxPoint x="390" y="383" as="sourcePoint" />
            <mxPoint x="325" y="350" as="targetPoint" />
          </mxGeometry>
        </mxCell>
        <mxCell id="LOCd6UUGv3mW9nOgF0pl-86" value="" style="endArrow=none;html=1;rounded=0;fontSize=12;startSize=8;endSize=8;curved=1;entryX=0.5;entryY=0;entryDx=0;entryDy=0;exitX=0;exitY=0.75;exitDx=0;exitDy=0;" edge="1" parent="1" source="LOCd6UUGv3mW9nOgF0pl-11" target="LOCd6UUGv3mW9nOgF0pl-84">
          <mxGeometry width="50" height="50" relative="1" as="geometry">
            <mxPoint x="199" y="327" as="sourcePoint" />
            <mxPoint x="134" y="294" as="targetPoint" />
          </mxGeometry>
        </mxCell>
        <mxCell id="LOCd6UUGv3mW9nOgF0pl-87" value="" style="endArrow=none;html=1;rounded=0;fontSize=12;startSize=8;endSize=8;curved=1;exitX=0.575;exitY=0.067;exitDx=0;exitDy=0;exitPerimeter=0;entryX=0.5;entryY=1;entryDx=0;entryDy=0;" edge="1" parent="1" source="LOCd6UUGv3mW9nOgF0pl-10" target="LOCd6UUGv3mW9nOgF0pl-84">
          <mxGeometry width="50" height="50" relative="1" as="geometry">
            <mxPoint x="136" y="514" as="sourcePoint" />
            <mxPoint x="197" y="464" as="targetPoint" />
          </mxGeometry>
        </mxCell>
        <mxCell id="LOCd6UUGv3mW9nOgF0pl-88" value="" style="endArrow=none;html=1;rounded=0;fontSize=12;startSize=8;endSize=8;curved=1;entryX=1;entryY=1;entryDx=0;entryDy=0;exitX=0.558;exitY=-0.017;exitDx=0;exitDy=0;exitPerimeter=0;" edge="1" parent="1" source="LOCd6UUGv3mW9nOgF0pl-14" target="LOCd6UUGv3mW9nOgF0pl-83">
          <mxGeometry width="50" height="50" relative="1" as="geometry">
            <mxPoint x="497" y="494" as="sourcePoint" />
            <mxPoint x="434" y="433" as="targetPoint" />
          </mxGeometry>
        </mxCell>
        <mxCell id="LOCd6UUGv3mW9nOgF0pl-89" value="Weekdays" style="ellipse;whiteSpace=wrap;html=1;" vertex="1" parent="1">
          <mxGeometry x="297" y="660" width="83" height="45" as="geometry" />
        </mxCell>
        <mxCell id="LOCd6UUGv3mW9nOgF0pl-90" value="" style="endArrow=none;html=1;rounded=0;fontSize=12;startSize=8;endSize=8;curved=1;entryX=0.41;entryY=0;entryDx=0;entryDy=0;exitX=0.5;exitY=1;exitDx=0;exitDy=0;entryPerimeter=0;" edge="1" parent="1" source="LOCd6UUGv3mW9nOgF0pl-15" target="LOCd6UUGv3mW9nOgF0pl-89">
          <mxGeometry width="50" height="50" relative="1" as="geometry">
            <mxPoint x="282" y="-109" as="sourcePoint" />
            <mxPoint x="282" y="-171" as="targetPoint" />
          </mxGeometry>
        </mxCell>
        <mxCell id="LOCd6UUGv3mW9nOgF0pl-91" value="total number of seats" style="ellipse;whiteSpace=wrap;html=1;" vertex="1" parent="1">
          <mxGeometry x="98" y="605" width="108" height="62" as="geometry" />
        </mxCell>
        <mxCell id="LOCd6UUGv3mW9nOgF0pl-93" value="Airplane_id" style="ellipse;whiteSpace=wrap;html=1;fontStyle=4" vertex="1" parent="1">
          <mxGeometry x="2" y="608.5" width="83" height="45" as="geometry" />
        </mxCell>
        <mxCell id="LOCd6UUGv3mW9nOgF0pl-94" value="" style="endArrow=none;html=1;rounded=0;fontSize=12;startSize=8;endSize=8;curved=1;entryX=0.5;entryY=0;entryDx=0;entryDy=0;exitX=0;exitY=1;exitDx=0;exitDy=0;" edge="1" parent="1" source="LOCd6UUGv3mW9nOgF0pl-10" target="LOCd6UUGv3mW9nOgF0pl-93">
          <mxGeometry width="50" height="50" relative="1" as="geometry">
            <mxPoint x="8" y="713" as="sourcePoint" />
            <mxPoint x="8" y="651" as="targetPoint" />
          </mxGeometry>
        </mxCell>
        <mxCell id="LOCd6UUGv3mW9nOgF0pl-99" value="" style="endArrow=none;html=1;rounded=0;fontSize=12;startSize=8;endSize=8;curved=1;entryX=0.5;entryY=0;entryDx=0;entryDy=0;exitX=0.75;exitY=1;exitDx=0;exitDy=0;" edge="1" parent="1" source="LOCd6UUGv3mW9nOgF0pl-10" target="LOCd6UUGv3mW9nOgF0pl-91">
          <mxGeometry width="50" height="50" relative="1" as="geometry">
            <mxPoint x="244" y="569" as="sourcePoint" />
            <mxPoint x="141" y="599" as="targetPoint" />
          </mxGeometry>
        </mxCell>
        <mxCell id="LOCd6UUGv3mW9nOgF0pl-100" value="" style="endArrow=none;html=1;rounded=0;fontSize=12;startSize=8;endSize=8;curved=1;entryX=1;entryY=0.5;entryDx=0;entryDy=0;exitX=0;exitY=0.5;exitDx=0;exitDy=0;" edge="1" parent="1" source="LOCd6UUGv3mW9nOgF0pl-102" target="LOCd6UUGv3mW9nOgF0pl-14">
          <mxGeometry width="50" height="50" relative="1" as="geometry">
            <mxPoint x="581" y="532" as="sourcePoint" />
            <mxPoint x="509.5" y="532" as="targetPoint" />
          </mxGeometry>
        </mxCell>
        <mxCell id="LOCd6UUGv3mW9nOgF0pl-101" value="customer" style="rounded=0;whiteSpace=wrap;html=1;" vertex="1" parent="1">
          <mxGeometry x="563" y="629" width="120" height="60" as="geometry" />
        </mxCell>
        <mxCell id="LOCd6UUGv3mW9nOgF0pl-102" value="   made" style="rhombus;whiteSpace=wrap;html=1;" vertex="1" parent="1">
          <mxGeometry x="588" y="490" width="80" height="80" as="geometry" />
        </mxCell>
        <mxCell id="LOCd6UUGv3mW9nOgF0pl-104" value="" style="endArrow=none;html=1;rounded=0;fontSize=12;startSize=8;endSize=8;curved=1;entryX=0.5;entryY=0;entryDx=0;entryDy=0;exitX=0.5;exitY=1;exitDx=0;exitDy=0;" edge="1" parent="1" source="LOCd6UUGv3mW9nOgF0pl-102" target="LOCd6UUGv3mW9nOgF0pl-101">
          <mxGeometry width="50" height="50" relative="1" as="geometry">
            <mxPoint x="631" y="599" as="sourcePoint" />
            <mxPoint x="553" y="601" as="targetPoint" />
          </mxGeometry>
        </mxCell>
        <mxCell id="LOCd6UUGv3mW9nOgF0pl-105" value="" style="ellipse;whiteSpace=wrap;html=1;" vertex="1" parent="1">
          <mxGeometry x="672" y="716.5" width="108" height="62" as="geometry" />
        </mxCell>
        <mxCell id="LOCd6UUGv3mW9nOgF0pl-106" value="" style="endArrow=none;html=1;rounded=0;fontSize=12;startSize=8;endSize=8;curved=1;entryX=0.5;entryY=0;entryDx=0;entryDy=0;exitX=1;exitY=1;exitDx=0;exitDy=0;" edge="1" parent="1" target="LOCd6UUGv3mW9nOgF0pl-105" source="LOCd6UUGv3mW9nOgF0pl-101">
          <mxGeometry width="50" height="50" relative="1" as="geometry">
            <mxPoint x="725" y="673.5" as="sourcePoint" />
            <mxPoint x="715" y="710.5" as="targetPoint" />
          </mxGeometry>
        </mxCell>
        <mxCell id="LOCd6UUGv3mW9nOgF0pl-107" value="name" style="ellipse;whiteSpace=wrap;html=1;" vertex="1" parent="1">
          <mxGeometry x="532" y="732" width="108" height="62" as="geometry" />
        </mxCell>
        <mxCell id="LOCd6UUGv3mW9nOgF0pl-108" value="" style="endArrow=none;html=1;rounded=0;fontSize=12;startSize=8;endSize=8;curved=1;entryX=0.5;entryY=0;entryDx=0;entryDy=0;exitX=0.75;exitY=1;exitDx=0;exitDy=0;" edge="1" parent="1" target="LOCd6UUGv3mW9nOgF0pl-107">
          <mxGeometry width="50" height="50" relative="1" as="geometry">
            <mxPoint x="585" y="689" as="sourcePoint" />
            <mxPoint x="575" y="726" as="targetPoint" />
          </mxGeometry>
        </mxCell>
        <mxCell id="LOCd6UUGv3mW9nOgF0pl-109" value="" style="endArrow=none;html=1;rounded=0;fontSize=12;startSize=8;endSize=8;curved=1;entryX=1;entryY=0.5;entryDx=0;entryDy=0;exitX=0;exitY=0;exitDx=0;exitDy=0;" edge="1" parent="1" source="LOCd6UUGv3mW9nOgF0pl-110" target="LOCd6UUGv3mW9nOgF0pl-83">
          <mxGeometry width="50" height="50" relative="1" as="geometry">
            <mxPoint x="506" y="420" as="sourcePoint" />
            <mxPoint x="428" y="422" as="targetPoint" />
          </mxGeometry>
        </mxCell>
        <mxCell id="LOCd6UUGv3mW9nOgF0pl-110" value="seat number" style="ellipse;whiteSpace=wrap;html=1;fontStyle=4" vertex="1" parent="1">
          <mxGeometry x="505" y="389" width="83" height="45" as="geometry" />
        </mxCell>
        <mxCell id="LOCd6UUGv3mW9nOgF0pl-113" value="" style="endArrow=none;html=1;rounded=0;fontSize=12;startSize=8;endSize=8;curved=1;entryX=0;entryY=0;entryDx=0;entryDy=0;exitX=1;exitY=0;exitDx=0;exitDy=0;" edge="1" parent="1" source="LOCd6UUGv3mW9nOgF0pl-115" target="LOCd6UUGv3mW9nOgF0pl-114">
          <mxGeometry width="50" height="50" relative="1" as="geometry">
            <mxPoint x="-290" y="497" as="sourcePoint" />
            <mxPoint x="-235" y="501" as="targetPoint" />
          </mxGeometry>
        </mxCell>
        <mxCell id="LOCd6UUGv3mW9nOgF0pl-114" value="       AIRPLANE TYPE " style="rounded=0;whiteSpace=wrap;html=1;" vertex="1" parent="1">
          <mxGeometry x="-211" y="409.5" width="120" height="60" as="geometry" />
        </mxCell>
        <mxCell id="LOCd6UUGv3mW9nOgF0pl-115" value="Type_name" style="ellipse;whiteSpace=wrap;html=1;fontStyle=4" vertex="1" parent="1">
          <mxGeometry x="-324" y="346" width="82" height="40" as="geometry" />
        </mxCell>
        <mxCell id="LOCd6UUGv3mW9nOgF0pl-116" value="company" style="ellipse;whiteSpace=wrap;html=1;" vertex="1" parent="1">
          <mxGeometry x="-329" y="492.5" width="82" height="40" as="geometry" />
        </mxCell>
        <mxCell id="LOCd6UUGv3mW9nOgF0pl-117" value="" style="endArrow=none;html=1;rounded=0;fontSize=12;startSize=8;endSize=8;curved=1;exitX=1;exitY=0;exitDx=0;exitDy=0;entryX=0;entryY=1;entryDx=0;entryDy=0;" edge="1" parent="1" source="LOCd6UUGv3mW9nOgF0pl-116" target="LOCd6UUGv3mW9nOgF0pl-114">
          <mxGeometry width="50" height="50" relative="1" as="geometry">
            <mxPoint x="-314" y="641" as="sourcePoint" />
            <mxPoint x="-307" y="697" as="targetPoint" />
          </mxGeometry>
        </mxCell>
        <mxCell id="LOCd6UUGv3mW9nOgF0pl-118" value="max_seats" style="ellipse;whiteSpace=wrap;html=1;" vertex="1" parent="1">
          <mxGeometry x="-357" y="419.5" width="82" height="40" as="geometry" />
        </mxCell>
        <mxCell id="LOCd6UUGv3mW9nOgF0pl-119" value="" style="endArrow=none;html=1;rounded=0;fontSize=12;startSize=8;endSize=8;curved=1;entryX=1;entryY=0.5;entryDx=0;entryDy=0;exitX=0;exitY=0.5;exitDx=0;exitDy=0;" edge="1" parent="1" target="LOCd6UUGv3mW9nOgF0pl-118" source="LOCd6UUGv3mW9nOgF0pl-114">
          <mxGeometry width="50" height="50" relative="1" as="geometry">
            <mxPoint x="-374.5" y="623" as="sourcePoint" />
            <mxPoint x="-298.5" y="658" as="targetPoint" />
          </mxGeometry>
        </mxCell>
        <mxCell id="LOCd6UUGv3mW9nOgF0pl-120" value="  belongs to" style="rhombus;whiteSpace=wrap;html=1;" vertex="1" parent="1">
          <mxGeometry x="-91" y="475" width="80" height="80" as="geometry" />
        </mxCell>
        <mxCell id="LOCd6UUGv3mW9nOgF0pl-121" value="" style="endArrow=none;html=1;rounded=0;fontSize=12;startSize=8;endSize=8;curved=1;entryX=0;entryY=0.5;entryDx=0;entryDy=0;exitX=0.75;exitY=1;exitDx=0;exitDy=0;" edge="1" parent="1" source="LOCd6UUGv3mW9nOgF0pl-114" target="LOCd6UUGv3mW9nOgF0pl-120">
          <mxGeometry width="50" height="50" relative="1" as="geometry">
            <mxPoint x="-133" y="553" as="sourcePoint" />
            <mxPoint x="-57" y="588" as="targetPoint" />
          </mxGeometry>
        </mxCell>
        <mxCell id="LOCd6UUGv3mW9nOgF0pl-122" value="" style="endArrow=none;html=1;rounded=0;fontSize=12;startSize=8;endSize=8;curved=1;entryX=0;entryY=0.75;entryDx=0;entryDy=0;exitX=0.859;exitY=0.697;exitDx=0;exitDy=0;exitPerimeter=0;" edge="1" parent="1" source="LOCd6UUGv3mW9nOgF0pl-120" target="LOCd6UUGv3mW9nOgF0pl-10">
          <mxGeometry width="50" height="50" relative="1" as="geometry">
            <mxPoint x="-15" y="510" as="sourcePoint" />
            <mxPoint x="58" y="510" as="targetPoint" />
          </mxGeometry>
        </mxCell>
        <mxCell id="LOCd6UUGv3mW9nOgF0pl-123" value="" style="endArrow=none;html=1;rounded=0;fontSize=12;startSize=8;endSize=8;curved=1;entryX=0.25;entryY=1;entryDx=0;entryDy=0;exitX=1;exitY=0;exitDx=0;exitDy=0;" edge="1" parent="1" source="LOCd6UUGv3mW9nOgF0pl-124" target="LOCd6UUGv3mW9nOgF0pl-1">
          <mxGeometry width="50" height="50" relative="1" as="geometry">
            <mxPoint x="-113" y="364" as="sourcePoint" />
            <mxPoint x="-25" y="314" as="targetPoint" />
          </mxGeometry>
        </mxCell>
        <mxCell id="LOCd6UUGv3mW9nOgF0pl-124" value="allow landing" style="rhombus;whiteSpace=wrap;html=1;" vertex="1" parent="1">
          <mxGeometry x="-146" y="233.5" width="80" height="80" as="geometry" />
        </mxCell>
        <mxCell id="LOCd6UUGv3mW9nOgF0pl-125" value="" style="endArrow=none;html=1;rounded=0;fontSize=12;startSize=8;endSize=8;curved=1;exitX=0.575;exitY=0;exitDx=0;exitDy=0;entryX=0.5;entryY=1;entryDx=0;entryDy=0;exitPerimeter=0;" edge="1" parent="1" source="LOCd6UUGv3mW9nOgF0pl-114" target="LOCd6UUGv3mW9nOgF0pl-124">
          <mxGeometry width="50" height="50" relative="1" as="geometry">
            <mxPoint x="-82" y="525" as="sourcePoint" />
            <mxPoint x="-89" y="434" as="targetPoint" />
          </mxGeometry>
        </mxCell>
        <mxCell id="LOCd6UUGv3mW9nOgF0pl-127" value="Restrictions" style="ellipse;whiteSpace=wrap;html=1;" vertex="1" parent="1">
          <mxGeometry x="369" y="572" width="83" height="45" as="geometry" />
        </mxCell>
        <mxCell id="LOCd6UUGv3mW9nOgF0pl-128" value="" style="endArrow=none;html=1;rounded=0;fontSize=12;startSize=8;endSize=8;curved=1;entryX=0;entryY=0;entryDx=0;entryDy=0;exitX=1;exitY=1;exitDx=0;exitDy=0;" edge="1" parent="1" target="LOCd6UUGv3mW9nOgF0pl-127" source="LOCd6UUGv3mW9nOgF0pl-15">
          <mxGeometry width="50" height="50" relative="1" as="geometry">
            <mxPoint x="539" y="-135" as="sourcePoint" />
            <mxPoint x="408" y="-167" as="targetPoint" />
          </mxGeometry>
        </mxCell>
        <mxCell id="LOCd6UUGv3mW9nOgF0pl-129" value="Airline" style="ellipse;whiteSpace=wrap;html=1;" vertex="1" parent="1">
          <mxGeometry x="348" y="622" width="83" height="45" as="geometry" />
        </mxCell>
        <mxCell id="LOCd6UUGv3mW9nOgF0pl-130" value="" style="endArrow=none;html=1;rounded=0;fontSize=12;startSize=8;endSize=8;curved=1;entryX=0;entryY=0;entryDx=0;entryDy=0;exitX=0.75;exitY=1;exitDx=0;exitDy=0;" edge="1" parent="1" target="LOCd6UUGv3mW9nOgF0pl-129" source="LOCd6UUGv3mW9nOgF0pl-15">
          <mxGeometry width="50" height="50" relative="1" as="geometry">
            <mxPoint x="321" y="-128" as="sourcePoint" />
            <mxPoint x="190" y="-160" as="targetPoint" />
          </mxGeometry>
        </mxCell>
        <mxCell id="LOCd6UUGv3mW9nOgF0pl-134" value="Have" style="rhombus;whiteSpace=wrap;html=1;" vertex="1" parent="1">
          <mxGeometry x="185" y="667" width="80" height="80" as="geometry" />
        </mxCell>
        <mxCell id="LOCd6UUGv3mW9nOgF0pl-135" value="Amount" style="ellipse;whiteSpace=wrap;html=1;" vertex="1" parent="1">
          <mxGeometry x="149" y="820" width="83" height="45" as="geometry" />
        </mxCell>
        <mxCell id="LOCd6UUGv3mW9nOgF0pl-136" value="" style="endArrow=none;html=1;rounded=0;fontSize=12;startSize=8;endSize=8;curved=1;entryX=0.5;entryY=0;entryDx=0;entryDy=0;exitX=0;exitY=0.75;exitDx=0;exitDy=0;" edge="1" parent="1" source="LOCd6UUGv3mW9nOgF0pl-223" target="LOCd6UUGv3mW9nOgF0pl-135">
          <mxGeometry width="50" height="50" relative="1" as="geometry">
            <mxPoint x="176" y="-21" as="sourcePoint" />
            <mxPoint x="176" y="-83" as="targetPoint" />
          </mxGeometry>
        </mxCell>
        <mxCell id="LOCd6UUGv3mW9nOgF0pl-137" value="Code" style="ellipse;whiteSpace=wrap;html=1;fontStyle=4" vertex="1" parent="1">
          <mxGeometry x="92" y="757" width="83" height="45" as="geometry" />
        </mxCell>
        <mxCell id="LOCd6UUGv3mW9nOgF0pl-138" value="" style="endArrow=none;html=1;rounded=0;fontSize=12;startSize=8;endSize=8;curved=1;entryX=0.958;entryY=0.327;entryDx=0;entryDy=0;exitX=0;exitY=0.5;exitDx=0;exitDy=0;entryPerimeter=0;" edge="1" parent="1" source="LOCd6UUGv3mW9nOgF0pl-223" target="LOCd6UUGv3mW9nOgF0pl-137">
          <mxGeometry width="50" height="50" relative="1" as="geometry">
            <mxPoint x="230" y="-85" as="sourcePoint" />
            <mxPoint x="230" y="-147" as="targetPoint" />
          </mxGeometry>
        </mxCell>
        <mxCell id="LOCd6UUGv3mW9nOgF0pl-142" value="" style="endArrow=none;html=1;rounded=0;fontSize=12;startSize=8;endSize=8;curved=1;exitX=1;exitY=1;exitDx=0;exitDy=0;entryX=0.5;entryY=0;entryDx=0;entryDy=0;" edge="1" parent="1" source="LOCd6UUGv3mW9nOgF0pl-134" target="LOCd6UUGv3mW9nOgF0pl-223">
          <mxGeometry width="50" height="50" relative="1" as="geometry">
            <mxPoint x="426" y="298" as="sourcePoint" />
            <mxPoint x="344" y="-11" as="targetPoint" />
          </mxGeometry>
        </mxCell>
        <mxCell id="LOCd6UUGv3mW9nOgF0pl-144" value="" style="endArrow=none;html=1;rounded=0;fontSize=12;startSize=8;endSize=8;curved=1;exitX=0.5;exitY=0;exitDx=0;exitDy=0;entryX=0.5;entryY=1;entryDx=0;entryDy=0;" edge="1" parent="1" source="LOCd6UUGv3mW9nOgF0pl-15" target="LOCd6UUGv3mW9nOgF0pl-145">
          <mxGeometry width="50" height="50" relative="1" as="geometry">
            <mxPoint x="458" y="-11" as="sourcePoint" />
            <mxPoint x="429" y="23" as="targetPoint" />
          </mxGeometry>
        </mxCell>
        <mxCell id="LOCd6UUGv3mW9nOgF0pl-145" value="include" style="rhombus;whiteSpace=wrap;html=1;" vertex="1" parent="1">
          <mxGeometry x="241" y="389" width="80" height="80" as="geometry" />
        </mxCell>
        <mxCell id="LOCd6UUGv3mW9nOgF0pl-146" value="" style="endArrow=none;html=1;rounded=0;fontSize=12;startSize=8;endSize=8;curved=1;exitX=0.377;exitY=0.117;exitDx=0;exitDy=0;entryX=0.629;entryY=1.041;entryDx=0;entryDy=0;exitPerimeter=0;entryPerimeter=0;" edge="1" parent="1" source="LOCd6UUGv3mW9nOgF0pl-145" target="LOCd6UUGv3mW9nOgF0pl-11">
          <mxGeometry width="50" height="50" relative="1" as="geometry">
            <mxPoint x="175" y="157" as="sourcePoint" />
            <mxPoint x="164" y="269" as="targetPoint" />
          </mxGeometry>
        </mxCell>
        <mxCell id="LOCd6UUGv3mW9nOgF0pl-150" value="" style="endArrow=none;html=1;rounded=0;fontSize=12;startSize=8;endSize=8;curved=1;entryX=0.391;entryY=0.85;entryDx=0;entryDy=0;entryPerimeter=0;exitX=0.433;exitY=0.037;exitDx=0;exitDy=0;exitPerimeter=0;" edge="1" parent="1" source="LOCd6UUGv3mW9nOgF0pl-114" target="LOCd6UUGv3mW9nOgF0pl-124">
          <mxGeometry width="50" height="50" relative="1" as="geometry">
            <mxPoint x="-199" y="490" as="sourcePoint" />
            <mxPoint x="-149" y="440" as="targetPoint" />
          </mxGeometry>
        </mxCell>
        <mxCell id="LOCd6UUGv3mW9nOgF0pl-151" value="" style="endArrow=none;html=1;rounded=0;fontSize=12;startSize=8;endSize=8;curved=1;entryX=0.659;entryY=0.844;entryDx=0;entryDy=0;exitX=0.323;exitY=0.033;exitDx=0;exitDy=0;exitPerimeter=0;entryPerimeter=0;" edge="1" parent="1" source="LOCd6UUGv3mW9nOgF0pl-223" target="LOCd6UUGv3mW9nOgF0pl-134">
          <mxGeometry width="50" height="50" relative="1" as="geometry">
            <mxPoint x="279" y="-94" as="sourcePoint" />
            <mxPoint x="327" y="-148" as="targetPoint" />
          </mxGeometry>
        </mxCell>
        <mxCell id="LOCd6UUGv3mW9nOgF0pl-153" value="phone" style="ellipse;whiteSpace=wrap;html=1;" vertex="1" parent="1">
          <mxGeometry x="682" y="723.25" width="88" height="48.5" as="geometry" />
        </mxCell>
        <mxCell id="LOCd6UUGv3mW9nOgF0pl-156" value="" style="endArrow=none;html=1;rounded=0;fontSize=12;startSize=8;endSize=8;curved=1;entryX=0.154;entryY=0.938;entryDx=0;entryDy=0;entryPerimeter=0;exitX=1;exitY=0;exitDx=0;exitDy=0;" edge="1" parent="1" source="LOCd6UUGv3mW9nOgF0pl-222" target="LOCd6UUGv3mW9nOgF0pl-42">
          <mxGeometry width="50" height="50" relative="1" as="geometry">
            <mxPoint x="436" y="251" as="sourcePoint" />
            <mxPoint x="484" y="227" as="targetPoint" />
          </mxGeometry>
        </mxCell>
        <mxCell id="LOCd6UUGv3mW9nOgF0pl-157" value="M" style="text;html=1;align=center;verticalAlign=middle;resizable=0;points=[];autosize=1;strokeColor=none;fillColor=none;fontSize=16;" vertex="1" parent="1">
          <mxGeometry x="223.75" y="649" width="31" height="31" as="geometry" />
        </mxCell>
        <mxCell id="LOCd6UUGv3mW9nOgF0pl-158" value="M" style="text;html=1;align=center;verticalAlign=middle;resizable=0;points=[];autosize=1;strokeColor=none;fillColor=none;fontSize=16;" vertex="1" parent="1">
          <mxGeometry x="270" y="726" width="31" height="31" as="geometry" />
        </mxCell>
        <mxCell id="LOCd6UUGv3mW9nOgF0pl-159" value="M" style="text;html=1;align=center;verticalAlign=middle;resizable=0;points=[];autosize=1;strokeColor=none;fillColor=none;fontSize=16;" vertex="1" parent="1">
          <mxGeometry x="-132" y="378.5" width="31" height="31" as="geometry" />
        </mxCell>
        <mxCell id="LOCd6UUGv3mW9nOgF0pl-160" value="1" style="text;html=1;align=center;verticalAlign=middle;resizable=0;points=[];autosize=1;strokeColor=none;fillColor=none;fontSize=16;" vertex="1" parent="1">
          <mxGeometry x="-75" y="233.5" width="27" height="31" as="geometry" />
        </mxCell>
        <mxCell id="LOCd6UUGv3mW9nOgF0pl-162" value="" style="endArrow=none;html=1;rounded=0;fontSize=12;startSize=8;endSize=8;curved=1;entryX=0;entryY=1;entryDx=0;entryDy=0;exitX=0.619;exitY=0.066;exitDx=0;exitDy=0;exitPerimeter=0;" edge="1" parent="1" source="LOCd6UUGv3mW9nOgF0pl-84" target="LOCd6UUGv3mW9nOgF0pl-11">
          <mxGeometry width="50" height="50" relative="1" as="geometry">
            <mxPoint x="140" y="516" as="sourcePoint" />
            <mxPoint x="145" y="473" as="targetPoint" />
          </mxGeometry>
        </mxCell>
        <mxCell id="LOCd6UUGv3mW9nOgF0pl-163" value="M" style="text;html=1;align=center;verticalAlign=middle;resizable=0;points=[];autosize=1;strokeColor=none;fillColor=none;fontSize=16;" vertex="1" parent="1">
          <mxGeometry x="168" y="377" width="31" height="31" as="geometry" />
        </mxCell>
        <mxCell id="LOCd6UUGv3mW9nOgF0pl-164" value="1" style="text;html=1;align=center;verticalAlign=middle;resizable=0;points=[];autosize=1;strokeColor=none;fillColor=none;fontSize=16;" vertex="1" parent="1">
          <mxGeometry x="120" y="455" width="27" height="31" as="geometry" />
        </mxCell>
        <mxCell id="LOCd6UUGv3mW9nOgF0pl-165" value="1" style="text;html=1;align=center;verticalAlign=middle;resizable=0;points=[];autosize=1;strokeColor=none;fillColor=none;fontSize=16;" vertex="1" parent="1">
          <mxGeometry x="-145.5" y="469.5" width="27" height="31" as="geometry" />
        </mxCell>
        <mxCell id="LOCd6UUGv3mW9nOgF0pl-167" value="" style="endArrow=none;html=1;rounded=0;fontSize=12;startSize=8;endSize=8;curved=1;entryX=0;entryY=0.5;entryDx=0;entryDy=0;exitX=1;exitY=0.5;exitDx=0;exitDy=0;" edge="1" parent="1" source="LOCd6UUGv3mW9nOgF0pl-120" target="LOCd6UUGv3mW9nOgF0pl-10">
          <mxGeometry width="50" height="50" relative="1" as="geometry">
            <mxPoint x="5" y="569" as="sourcePoint" />
            <mxPoint x="50" y="566" as="targetPoint" />
          </mxGeometry>
        </mxCell>
        <mxCell id="LOCd6UUGv3mW9nOgF0pl-168" value="" style="endArrow=none;html=1;rounded=0;fontSize=12;startSize=8;endSize=8;curved=1;entryX=0.694;entryY=0.875;entryDx=0;entryDy=0;exitX=0.381;exitY=-0.062;exitDx=0;exitDy=0;exitPerimeter=0;entryPerimeter=0;" edge="1" parent="1" source="LOCd6UUGv3mW9nOgF0pl-14" target="LOCd6UUGv3mW9nOgF0pl-83">
          <mxGeometry width="50" height="50" relative="1" as="geometry">
            <mxPoint x="447" y="505" as="sourcePoint" />
            <mxPoint x="398" y="447" as="targetPoint" />
          </mxGeometry>
        </mxCell>
        <mxCell id="LOCd6UUGv3mW9nOgF0pl-169" value="M" style="text;html=1;align=center;verticalAlign=middle;resizable=0;points=[];autosize=1;strokeColor=none;fillColor=none;fontSize=16;" vertex="1" parent="1">
          <mxGeometry x="421" y="446.5" width="31" height="31" as="geometry" />
        </mxCell>
        <mxCell id="LOCd6UUGv3mW9nOgF0pl-170" value="1" style="text;html=1;align=center;verticalAlign=middle;resizable=0;points=[];autosize=1;strokeColor=none;fillColor=none;fontSize=16;" vertex="1" parent="1">
          <mxGeometry x="338" y="369" width="27" height="31" as="geometry" />
        </mxCell>
        <mxCell id="LOCd6UUGv3mW9nOgF0pl-171" value="M" style="text;html=1;align=center;verticalAlign=middle;resizable=0;points=[];autosize=1;strokeColor=none;fillColor=none;fontSize=16;" vertex="1" parent="1">
          <mxGeometry x="396" y="190" width="31" height="31" as="geometry" />
        </mxCell>
        <mxCell id="LOCd6UUGv3mW9nOgF0pl-173" value="" style="endArrow=none;html=1;rounded=0;fontSize=12;startSize=8;endSize=8;curved=1;exitX=0.5;exitY=0;exitDx=0;exitDy=0;entryX=0.708;entryY=0.937;entryDx=0;entryDy=0;entryPerimeter=0;" edge="1" parent="1" source="LOCd6UUGv3mW9nOgF0pl-145" target="LOCd6UUGv3mW9nOgF0pl-11">
          <mxGeometry width="50" height="50" relative="1" as="geometry">
            <mxPoint x="280" y="174" as="sourcePoint" />
            <mxPoint x="271" y="271" as="targetPoint" />
          </mxGeometry>
        </mxCell>
        <mxCell id="LOCd6UUGv3mW9nOgF0pl-176" value="1" style="text;html=1;align=center;verticalAlign=middle;resizable=0;points=[];autosize=1;strokeColor=none;fillColor=none;fontSize=16;" vertex="1" parent="1">
          <mxGeometry x="256.5" y="466" width="27" height="31" as="geometry" />
        </mxCell>
        <mxCell id="LOCd6UUGv3mW9nOgF0pl-177" value="1" style="text;html=1;align=center;verticalAlign=middle;resizable=0;points=[];autosize=1;strokeColor=none;fillColor=none;fontSize=16;" vertex="1" parent="1">
          <mxGeometry x="330" y="253" width="27" height="31" as="geometry" />
        </mxCell>
        <mxCell id="LOCd6UUGv3mW9nOgF0pl-178" value="M" style="text;html=1;align=center;verticalAlign=middle;resizable=0;points=[];autosize=1;strokeColor=none;fillColor=none;fontSize=16;" vertex="1" parent="1">
          <mxGeometry x="-29" y="546" width="31" height="31" as="geometry" />
        </mxCell>
        <mxCell id="LOCd6UUGv3mW9nOgF0pl-179" value="" style="endArrow=none;html=1;rounded=0;fontSize=12;startSize=8;endSize=8;curved=1;entryX=0.992;entryY=0.3;entryDx=0;entryDy=0;exitX=0;exitY=0.5;exitDx=0;exitDy=0;entryPerimeter=0;" edge="1" parent="1" source="LOCd6UUGv3mW9nOgF0pl-181" target="LOCd6UUGv3mW9nOgF0pl-1">
          <mxGeometry width="50" height="50" relative="1" as="geometry">
            <mxPoint x="175" y="119" as="sourcePoint" />
            <mxPoint x="84" y="106" as="targetPoint" />
          </mxGeometry>
        </mxCell>
        <mxCell id="LOCd6UUGv3mW9nOgF0pl-180" value="" style="endArrow=none;html=1;rounded=0;fontSize=12;startSize=8;endSize=8;curved=1;entryX=1;entryY=0.75;entryDx=0;entryDy=0;exitX=0;exitY=0;exitDx=0;exitDy=0;" edge="1" parent="1" source="LOCd6UUGv3mW9nOgF0pl-182" target="LOCd6UUGv3mW9nOgF0pl-1">
          <mxGeometry width="50" height="50" relative="1" as="geometry">
            <mxPoint x="178" y="170" as="sourcePoint" />
            <mxPoint x="87" y="157" as="targetPoint" />
          </mxGeometry>
        </mxCell>
        <mxCell id="LOCd6UUGv3mW9nOgF0pl-181" value="Depart&amp;nbsp;" style="rhombus;whiteSpace=wrap;html=1;" vertex="1" parent="1">
          <mxGeometry x="209.13" y="58" width="60.25" height="57.5" as="geometry" />
        </mxCell>
        <mxCell id="LOCd6UUGv3mW9nOgF0pl-182" value="arrive" style="rhombus;whiteSpace=wrap;html=1;" vertex="1" parent="1">
          <mxGeometry x="207" y="123" width="66.25" height="67" as="geometry" />
        </mxCell>
        <mxCell id="LOCd6UUGv3mW9nOgF0pl-183" value="" style="endArrow=none;html=1;rounded=0;fontSize=12;startSize=8;endSize=8;curved=1;entryX=1;entryY=0.25;entryDx=0;entryDy=0;exitX=0.169;exitY=0.416;exitDx=0;exitDy=0;exitPerimeter=0;" edge="1" parent="1" source="LOCd6UUGv3mW9nOgF0pl-181" target="LOCd6UUGv3mW9nOgF0pl-1">
          <mxGeometry width="50" height="50" relative="1" as="geometry">
            <mxPoint x="328" y="143" as="sourcePoint" />
            <mxPoint x="244" y="139" as="targetPoint" />
          </mxGeometry>
        </mxCell>
        <mxCell id="LOCd6UUGv3mW9nOgF0pl-184" value="" style="endArrow=none;html=1;rounded=0;fontSize=12;startSize=8;endSize=8;curved=1;entryX=1;entryY=0.5;entryDx=0;entryDy=0;exitX=0;exitY=0.5;exitDx=0;exitDy=0;" edge="1" parent="1" source="LOCd6UUGv3mW9nOgF0pl-42" target="LOCd6UUGv3mW9nOgF0pl-182">
          <mxGeometry width="50" height="50" relative="1" as="geometry">
            <mxPoint x="484" y="182" as="sourcePoint" />
            <mxPoint x="258" y="120" as="targetPoint" />
          </mxGeometry>
        </mxCell>
        <mxCell id="LOCd6UUGv3mW9nOgF0pl-188" value="" style="endArrow=none;html=1;rounded=0;fontSize=12;startSize=8;endSize=8;curved=1;entryX=0.086;entryY=1.007;entryDx=0;entryDy=0;entryPerimeter=0;exitX=0.461;exitY=0.099;exitDx=0;exitDy=0;exitPerimeter=0;" edge="1" parent="1" source="LOCd6UUGv3mW9nOgF0pl-134" target="LOCd6UUGv3mW9nOgF0pl-15">
          <mxGeometry width="50" height="50" relative="1" as="geometry">
            <mxPoint x="231" y="706" as="sourcePoint" />
            <mxPoint x="236" y="570" as="targetPoint" />
          </mxGeometry>
        </mxCell>
        <mxCell id="LOCd6UUGv3mW9nOgF0pl-189" value="M" style="text;html=1;align=center;verticalAlign=middle;resizable=0;points=[];autosize=1;strokeColor=none;fillColor=none;fontSize=16;" vertex="1" parent="1">
          <mxGeometry x="278" y="58" width="31" height="31" as="geometry" />
        </mxCell>
        <mxCell id="LOCd6UUGv3mW9nOgF0pl-190" value="M" style="text;html=1;align=center;verticalAlign=middle;resizable=0;points=[];autosize=1;strokeColor=none;fillColor=none;fontSize=16;" vertex="1" parent="1">
          <mxGeometry x="283.5" y="154" width="31" height="31" as="geometry" />
        </mxCell>
        <mxCell id="LOCd6UUGv3mW9nOgF0pl-191" value="1" style="text;html=1;align=center;verticalAlign=middle;resizable=0;points=[];autosize=1;strokeColor=none;fillColor=none;fontSize=16;" vertex="1" parent="1">
          <mxGeometry x="172" y="154" width="27" height="31" as="geometry" />
        </mxCell>
        <mxCell id="LOCd6UUGv3mW9nOgF0pl-192" value="1" style="text;html=1;align=center;verticalAlign=middle;resizable=0;points=[];autosize=1;strokeColor=none;fillColor=none;fontSize=16;" vertex="1" parent="1">
          <mxGeometry x="154" y="64" width="27" height="31" as="geometry" />
        </mxCell>
        <mxCell id="LOCd6UUGv3mW9nOgF0pl-193" value="" style="endArrow=none;html=1;rounded=0;fontSize=12;startSize=8;endSize=8;curved=1;entryX=1;entryY=1;entryDx=0;entryDy=0;exitX=0.116;exitY=0.344;exitDx=0;exitDy=0;exitPerimeter=0;" edge="1" parent="1" source="LOCd6UUGv3mW9nOgF0pl-182" target="LOCd6UUGv3mW9nOgF0pl-1">
          <mxGeometry width="50" height="50" relative="1" as="geometry">
            <mxPoint x="484" y="197" as="sourcePoint" />
            <mxPoint x="251" y="212" as="targetPoint" />
          </mxGeometry>
        </mxCell>
        <mxCell id="LOCd6UUGv3mW9nOgF0pl-194" value="" style="endArrow=none;html=1;rounded=0;fontSize=12;startSize=8;endSize=8;curved=1;entryX=1;entryY=0.5;entryDx=0;entryDy=0;exitX=0;exitY=0.25;exitDx=0;exitDy=0;" edge="1" parent="1" source="LOCd6UUGv3mW9nOgF0pl-42" target="LOCd6UUGv3mW9nOgF0pl-181">
          <mxGeometry width="50" height="50" relative="1" as="geometry">
            <mxPoint x="484" y="182" as="sourcePoint" />
            <mxPoint x="258" y="120" as="targetPoint" />
          </mxGeometry>
        </mxCell>
        <mxCell id="LOCd6UUGv3mW9nOgF0pl-195" value="M" style="text;html=1;align=center;verticalAlign=middle;resizable=0;points=[];autosize=1;strokeColor=none;fillColor=none;fontSize=16;" vertex="1" parent="1">
          <mxGeometry x="241" y="374" width="31" height="31" as="geometry" />
        </mxCell>
        <mxCell id="LOCd6UUGv3mW9nOgF0pl-199" value="   linked " style="rhombus;whiteSpace=wrap;html=1;" vertex="1" parent="1">
          <mxGeometry x="366" y="372" width="61" height="58" as="geometry" />
        </mxCell>
        <mxCell id="LOCd6UUGv3mW9nOgF0pl-202" value="Weekdays" style="ellipse;whiteSpace=wrap;html=1;" vertex="1" parent="1">
          <mxGeometry x="301" y="665" width="73" height="36" as="geometry" />
        </mxCell>
        <mxCell id="LOCd6UUGv3mW9nOgF0pl-203" value="Restrictions" style="ellipse;whiteSpace=wrap;html=1;" vertex="1" parent="1">
          <mxGeometry x="375" y="577" width="70" height="35" as="geometry" />
        </mxCell>
        <mxCell id="LOCd6UUGv3mW9nOgF0pl-204" value="&lt;span style=&quot;color: rgb(0, 0, 0); font-family: Helvetica; font-size: 12px; font-style: normal; font-variant-ligatures: normal; font-variant-caps: normal; font-weight: 400; letter-spacing: normal; orphans: 2; text-align: center; text-indent: 0px; text-transform: none; widows: 2; word-spacing: 0px; -webkit-text-stroke-width: 0px; white-space: normal; background-color: rgb(255, 255, 255); text-decoration-thickness: initial; text-decoration-style: initial; text-decoration-color: initial; float: none; display: inline !important;&quot;&gt;SEAT / RESERVATION&lt;/span&gt;" style="rounded=0;whiteSpace=wrap;html=1;" vertex="1" parent="1">
          <mxGeometry x="446" y="487.5" width="101" height="41.5" as="geometry" />
        </mxCell>
        <mxCell id="LOCd6UUGv3mW9nOgF0pl-205" value="   made" style="rhombus;whiteSpace=wrap;html=1;" vertex="1" parent="1">
          <mxGeometry x="598" y="500" width="63" height="60" as="geometry" />
        </mxCell>
        <mxCell id="LOCd6UUGv3mW9nOgF0pl-207" value="" style="endArrow=none;html=1;rounded=0;fontSize=12;startSize=8;endSize=8;curved=1;exitX=0.5;exitY=0;exitDx=0;exitDy=0;entryX=0.5;entryY=1;entryDx=0;entryDy=0;" edge="1" parent="1" source="LOCd6UUGv3mW9nOgF0pl-181" target="LOCd6UUGv3mW9nOgF0pl-208">
          <mxGeometry width="50" height="50" relative="1" as="geometry">
            <mxPoint x="225.5" y="40" as="sourcePoint" />
            <mxPoint x="215" y="37" as="targetPoint" />
          </mxGeometry>
        </mxCell>
        <mxCell id="LOCd6UUGv3mW9nOgF0pl-208" value="scheduled_Dep_time" style="ellipse;whiteSpace=wrap;html=1;" vertex="1" parent="1">
          <mxGeometry x="174.5" y="-24" width="129.5" height="54" as="geometry" />
        </mxCell>
        <mxCell id="LOCd6UUGv3mW9nOgF0pl-211" value="" style="endArrow=none;html=1;rounded=0;fontSize=12;startSize=8;endSize=8;curved=1;entryX=0.5;entryY=1;entryDx=0;entryDy=0;exitX=0.5;exitY=0;exitDx=0;exitDy=0;" edge="1" parent="1" source="LOCd6UUGv3mW9nOgF0pl-212" target="LOCd6UUGv3mW9nOgF0pl-182">
          <mxGeometry width="50" height="50" relative="1" as="geometry">
            <mxPoint x="211" y="235" as="sourcePoint" />
            <mxPoint x="34" y="378" as="targetPoint" />
          </mxGeometry>
        </mxCell>
        <mxCell id="LOCd6UUGv3mW9nOgF0pl-212" value="scheduled_arr_time" style="ellipse;whiteSpace=wrap;html=1;" vertex="1" parent="1">
          <mxGeometry x="176" y="202.5" width="128" height="47.5" as="geometry" />
        </mxCell>
        <mxCell id="LOCd6UUGv3mW9nOgF0pl-218" value="Airline System ERD" style="text;strokeColor=none;fillColor=none;html=1;align=center;verticalAlign=middle;whiteSpace=wrap;rounded=0;fontSize=16;" vertex="1" parent="1">
          <mxGeometry x="115" y="-78" width="163" height="30" as="geometry" />
        </mxCell>
        <mxCell id="LOCd6UUGv3mW9nOgF0pl-219" value="LEG INSTANCE" style="rounded=0;whiteSpace=wrap;html=1;" vertex="1" parent="1">
          <mxGeometry x="204.5" y="306" width="103.5" height="38" as="geometry" />
        </mxCell>
        <mxCell id="LOCd6UUGv3mW9nOgF0pl-220" value="  assigned " style="rhombus;whiteSpace=wrap;html=1;" vertex="1" parent="1">
          <mxGeometry x="125" y="396" width="60" height="61" as="geometry" />
        </mxCell>
        <mxCell id="LOCd6UUGv3mW9nOgF0pl-221" value="include" style="rhombus;whiteSpace=wrap;html=1;" vertex="1" parent="1">
          <mxGeometry x="251" y="399" width="61" height="60" as="geometry" />
        </mxCell>
        <mxCell id="LOCd6UUGv3mW9nOgF0pl-222" value="&lt;span style=&quot;color: rgb(0, 0, 0); font-family: Helvetica; font-size: 12px; font-style: normal; font-variant-ligatures: normal; font-variant-caps: normal; font-weight: 400; letter-spacing: normal; orphans: 2; text-align: center; text-indent: 0px; text-transform: none; widows: 2; word-spacing: 0px; -webkit-text-stroke-width: 0px; white-space: normal; background-color: rgb(255, 255, 255); text-decoration-thickness: initial; text-decoration-style: initial; text-decoration-color: initial; float: none; display: inline !important;&quot;&gt;Occurrence&lt;/span&gt;" style="rhombus;whiteSpace=wrap;html=1;" vertex="1" parent="1">
          <mxGeometry x="377" y="231" width="61" height="61" as="geometry" />
        </mxCell>
        <mxCell id="LOCd6UUGv3mW9nOgF0pl-223" value="Fare" style="rounded=0;whiteSpace=wrap;html=1;" vertex="1" parent="1">
          <mxGeometry x="249" y="775" width="108" height="50" as="geometry" />
        </mxCell>
        <mxCell id="LOCd6UUGv3mW9nOgF0pl-224" value="Fare" style="rounded=0;whiteSpace=wrap;html=1;" vertex="1" parent="1">
          <mxGeometry x="259" y="785" width="88" height="31" as="geometry" />
        </mxCell>
        <mxCell id="LOCd6UUGv3mW9nOgF0pl-225" value="Have" style="rhombus;whiteSpace=wrap;html=1;" vertex="1" parent="1">
          <mxGeometry x="195" y="677" width="60" height="59" as="geometry" />
        </mxCell>
        <mxCell id="LOCd6UUGv3mW9nOgF0pl-226" value="1" style="text;html=1;align=center;verticalAlign=middle;resizable=0;points=[];autosize=1;strokeColor=none;fillColor=none;fontSize=16;" vertex="1" parent="1">
          <mxGeometry x="626" y="574" width="27" height="31" as="geometry" />
        </mxCell>
        <mxCell id="LOCd6UUGv3mW9nOgF0pl-227" value="M" style="text;html=1;align=center;verticalAlign=middle;resizable=0;points=[];autosize=1;strokeColor=none;fillColor=none;fontSize=16;" vertex="1" parent="1">
          <mxGeometry x="567" y="477.5" width="31" height="31" as="geometry" />
        </mxCell>
        <mxCell id="LOCd6UUGv3mW9nOgF0pl-228" value="" style="endArrow=none;html=1;rounded=0;fontSize=12;startSize=8;endSize=8;curved=1;entryX=1;entryY=0.75;entryDx=0;entryDy=0;exitX=0.119;exitY=0.619;exitDx=0;exitDy=0;exitPerimeter=0;" edge="1" parent="1" source="LOCd6UUGv3mW9nOgF0pl-102" target="LOCd6UUGv3mW9nOgF0pl-14">
          <mxGeometry width="50" height="50" relative="1" as="geometry">
            <mxPoint x="579" y="540" as="sourcePoint" />
            <mxPoint x="566" y="518" as="targetPoint" />
          </mxGeometry>
        </mxCell>
      </root>
    </mxGraphModel>
  </diagram>
</mxfile>
